<svg width="539" height="372" viewBox="0 0 539 372" fill="none" xmlns="http://www.w3.org/2000/svg">
<path d="M247.76 56.6963L316.61 157.136H178.91L247.76 56.6963Z" fill="#E69D6C"/>
<path d="M247.749 286.675L178.915 157.139H316.615L247.749 286.675Z" fill="#C773A2"/>
<path d="M316.608 157.138L247.743 286.673L375.738 272.158L316.608 157.138Z" fill="#93BEE2"/>
<path d="M178.912 157.138L247.747 286.673L120.592 272.158L178.912 157.138Z" fill="#B43038"/>
<path d="M375.745 272.154L373.315 134.454L316.615 157.134L375.745 272.154Z" fill="#B9D5EC"/>
<path d="M120.59 272.154L121.4 134.454L178.91 157.134L120.59 272.154Z" fill="#C15762"/>
<path d="M247.766 56.6963L316.616 157.136L373.316 134.456L247.766 56.6963Z" fill="#F2CDB6"/>
<path d="M247.774 56.6963L178.924 157.136L121.414 134.456L247.774 56.6963Z" fill="#DC6A2E"/>
<path d="M375.748 272.154L248.095 343.221L247.752 286.67L375.748 272.154Z" fill="#66A1D6"/>
<path d="M120.594 272.154L248.092 343.221L247.749 286.67L120.594 272.154Z" fill="#C15762"/>
<path fill-rule="evenodd" clip-rule="evenodd" d="M515.565 76.1686C485.607 114.964 405.081 175.264 304.01 231.695C166.014 308.742 41.9748 349.401 26.9603 322.509C17.2509 305.119 55.5107 263.739 121.077 215.833L121.077 238.245C81.5449 268.414 55.4522 294.264 60.751 303.754C71.1982 322.466 199.721 270.494 295.74 216.884C373.588 173.418 457.972 113.334 481.553 82.1774L515.565 76.1686ZM469.1 40.0322C430.656 48.9271 376.54 69.7437 316.117 99.413L334.028 110.253C383.671 87.0671 431.242 68.9534 460.037 63.3697L469.1 40.0322Z" fill="#414142"/>
<path d="M491.399 7.25205L538.998 63.413L465.908 76.3259L491.399 7.25205Z" fill="#E69D6C"/>
</svg>
