<?xml version="1.0" encoding="UTF-8"?>
<svg fill="none" viewBox="0 0 195 52" xmlns="http://www.w3.org/2000/svg">
<path d="m66.501 32.835v0.183c0 1.0986 1.4916 2.5998 4.8022 2.5998 2.7285 0 3.6015-0.9154 3.6015-1.7575 0-1.2084-1.4187-1.9407-4.8384-3.1126-4.5112-1.5013-10.441-3.6983-10.441-9.5938 0-5.456 4.6202-8.8614 11.096-8.8614 6.6211 0 11.605 3.5517 11.605 9.2276v0.4028h-7.0941v-0.2563c0-1.3916-1.4187-3.0394-4.3655-3.0394-2.4738 0-3.456 0.9888-3.456 1.9408 0 1.1351 1.3096 1.721 4.693 2.8928 3.9289 1.3914 10.623 3.735 10.623 9.9968 0 5.5659-4.8021 8.4952-11.278 8.4952-6.8029 0-12.042-3.1859-12.042-8.7883v-0.3296l7.0941 1e-4z" fill="#003778"/>
<path d="m91.422 12.842h12.515c7.531 0 11.132 5.1997 11.132 10.949 0 6.042-3.601 11.132-11.132 11.132h-5.2388v6.4813h-7.276v-28.562zm7.276 6.6644v8.7517h4.8388c3.056 0 4.183-1.9041 4.183-4.4308 0-2.2703-1.127-4.3209-4.183-4.3209h-4.8388z" fill="#003778"/>
<path d="m123.33 12.842h13.169c8.877 0 13.425 6.5179 13.425 14.281 0 7.7995-4.548 14.281-13.425 14.281h-13.169v-28.562zm7.276 7.1038v14.391h5.348c4.329 0 6.621-2.9295 6.621-7.2137 0-4.2843-2.292-7.1772-6.621-7.1772h-5.348z" fill="#003778"/>
<path d="m182.34 12.842-9.531 14.208 9.75 14.354h-8.84l-5.276-7.8362-5.238 7.8362h-8.84l9.749-14.354-9.531-14.208h8.585l5.275 7.7995 5.312-7.7995h8.585z" fill="#003778"/>
<path d="m13.304 14.668h23.146l9.5175-9.6413h-42.242v42.47l9.5786-9.5805v-23.248z" fill="#003778"/>
<path d="m13.304 14.668h23.146l9.5175-9.6413h-42.242v42.47l9.5786-9.5805v-23.248z" fill="url(#a)" opacity=".8"/>
<path d="m36.45 14.668-23.146 23.248-9.5786 9.5918h13.953l8.4966-8.6888v-11.196h11.17l8.5868-8.6055v-14.041l-9.4817 9.6907z" fill="#0094FF"/>
<path d="m28.57 30.033v17.475h17.361v-17.475h-17.361z" fill="#0094FF"/>
<path d="m183.84 16.793c0-0.5427 0.102-1.0554 0.307-1.5386 0.205-0.4828 0.486-0.9036 0.842-1.2619 0.355-0.358 0.773-0.6403 1.253-0.8465 0.48-0.206 0.989-0.3094 1.529-0.3094 0.539 0 1.048 0.1034 1.528 0.3094 0.48 0.2062 0.898 0.4885 1.254 0.8465 0.356 0.3583 0.636 0.7791 0.841 1.2619 0.205 0.4832 0.308 0.9959 0.308 1.5386 0 0.543-0.103 1.0558-0.308 1.5386-0.205 0.4831-0.485 0.9036-0.841 1.2619-0.356 0.3582-0.774 0.6406-1.254 0.8466-0.48 0.2063-0.989 0.3093-1.528 0.3093-0.54 0-1.049-0.103-1.529-0.3093-0.48-0.206-0.898-0.4884-1.253-0.8466-0.356-0.3583-0.637-0.7788-0.842-1.2619-0.205-0.4828-0.307-0.9956-0.307-1.5386zm1.019 0c0 0.4126 0.075 0.7953 0.227 1.1478 0.15 0.353 0.358 0.6622 0.622 0.9281 0.264 0.2662 0.572 0.4749 0.922 0.6269 0.351 0.152 0.731 0.2279 1.141 0.2279 0.398 0 0.776-0.0759 1.132-0.2279s0.666-0.3607 0.93-0.6269c0.264-0.2659 0.472-0.5751 0.623-0.9281 0.151-0.3525 0.226-0.7352 0.226-1.1478 0-0.4015-0.075-0.7815-0.226-1.1397s-0.359-0.67-0.623-0.9362c-0.264-0.2658-0.574-0.4746-0.93-0.6268-0.356-0.1518-0.734-0.228-1.132-0.228-0.41 0-0.79 0.0762-1.141 0.228-0.35 0.1522-0.658 0.361-0.922 0.6268-0.264 0.2662-0.472 0.578-0.622 0.9362-0.152 0.3582-0.227 0.7382-0.227 1.1397zm3.656 1.8236-0.615-1.0909h-0.647v1.0909h-0.889v-3.8262h1.633c0.453 0 0.801 0.1358 1.043 0.407 0.243 0.2715 0.364 0.5861 0.364 0.9443 0 0.2498-0.056 0.4832-0.169 0.7001-0.114 0.2174-0.278 0.3854-0.494 0.5048l0.744 1.27h-0.97zm-1.262-2.9633v1.0095h0.696c0.183 0 0.32-0.0569 0.412-0.1709s0.138-0.2306 0.138-0.3502c0-0.1302-0.046-0.2442-0.138-0.3418-0.092-0.0978-0.229-0.1466-0.412-0.1466h-0.696z" fill="#003778"/>
<defs>
<linearGradient id="a" x1="8.4858" x2="27.703" y1="5.2081" y2="29.618" gradientUnits="userSpaceOnUse">
<stop stop-color="#fff" stop-opacity="0" offset="0"/>
<stop stop-color="#CDCCCC" stop-opacity=".22668" offset=".34941"/>
<stop stop-color="#454142" stop-opacity=".84698" offset=".889"/>
<stop stop-color="#231F20" offset="1"/>
</linearGradient>
</defs>
</svg>

