<svg width="373" height="418" viewBox="0 0 373 418" fill="none" xmlns="http://www.w3.org/2000/svg">
<path d="M185.522 0L285.964 146.527H85.0801L185.522 0Z" fill="#E69D6C"/>
<path d="M185.5 335.5L85.0809 146.528H285.965L185.5 335.5Z" fill="#C773A2"/>
<path d="M285.965 146.526L185.5 335.5L372.227 314.323L285.965 146.526Z" fill="#93BEE2"/>
<path d="M85.0802 146.526L185.5 335.5L0 314.323L85.0802 146.526Z" fill="#B43038"/>
<path d="M372.227 314.324L368.682 113.44L285.965 146.527L372.227 314.324Z" fill="#B9D5EC"/>
<path d="M-0.000160217 314.324L1.18151 113.44L85.0801 146.527L-0.000160217 314.324Z" fill="#C15762"/>
<path d="M185.523 0L285.965 146.527L368.682 113.44L185.523 0Z" fill="#F2CDB6"/>
<path d="M185.524 0L85.0822 146.527L1.18359 113.44L185.524 0Z" fill="#DC6A2E"/>
<path d="M372.227 314.324L186 418L185.5 335.5L372.227 314.324Z" fill="#66A1D6"/>
<path d="M-0.000717163 314.324L186 418L185.5 335.5L-0.000717163 314.324Z" fill="#C15762"/>
</svg>
